<?xml version="1.0" encoding="UTF-8" standalone="no"?>
<!-- Generator: Adobe Illustrator 19.0.0, SVG Export Plug-In . SVG Version: 6.00 Build 0)  -->

<svg
   version="1.1"
   id="Capa_1"
   x="0px"
   y="0px"
   viewBox="0 0 55 55"
   style="enable-background:new 0 0 55 55;"
   xml:space="preserve"
   sodipodi:docname="favicon.svg"
   inkscape:version="1.2 (dc2aedaf03, 2022-05-15)"
   xmlns:inkscape="http://www.inkscape.org/namespaces/inkscape"
   xmlns:sodipodi="http://sodipodi.sourceforge.net/DTD/sodipodi-0.dtd"
   xmlns="http://www.w3.org/2000/svg"
   xmlns:svg="http://www.w3.org/2000/svg"><defs
   id="defs7" /><sodipodi:namedview
   id="namedview5"
   pagecolor="#505050"
   bordercolor="#ffffff"
   borderopacity="1"
   inkscape:showpageshadow="0"
   inkscape:pageopacity="0"
   inkscape:pagecheckerboard="1"
   inkscape:deskcolor="#505050"
   showgrid="false"
   inkscape:zoom="11.198"
   inkscape:cx="25.317021"
   inkscape:cy="21.700304"
   inkscape:window-width="1920"
   inkscape:window-height="1017"
   inkscape:window-x="0"
   inkscape:window-y="0"
   inkscape:window-maximized="1"
   inkscape:current-layer="Capa_1" />
<path
   d="m 47.79461,1.5417782 c -3.123482,0 -5.663612,2.54013 -5.663612,5.6636121 0,0.9769729 0.248255,1.896366 0.685296,2.699655 l -9.27794,9.2779407 c -1.279032,-0.995853 -2.879947,-1.594307 -4.622451,-1.594307 -1.742505,0 -3.343419,0.598454 -4.623396,1.593362 l -7.23904,-7.239039 c 0.332266,-0.561641 0.535212,-1.207293 0.535212,-1.905806 0,-2.0823211 -1.693421,-3.7757411 -3.775741,-3.7757411 -2.082321,0 -3.775742,1.69342 -3.775742,3.7757411 0,2.082321 1.693421,3.775742 3.775742,3.775742 0.698512,0 1.344164,-0.202946 1.905805,-0.535211 l 7.23904,7.239039 c -0.994908,1.279977 -1.593364,2.880891 -1.593364,4.623396 0,1.742504 0.598456,3.343419 1.593364,4.62245 L 11.003787,41.717553 C 9.9975511,40.804768 8.6675459,40.243127 7.2053902,40.243127 c -3.1234821,0 -5.663612,2.54013 -5.663612,5.663612 0,3.123482 2.5401299,5.663612 5.663612,5.663612 3.1234818,0 5.6636118,-2.54013 5.6636118,-5.663612 0,-0.976973 -0.248256,-1.896366 -0.685297,-2.699655 L 24.293452,31.097337 c 1.043991,0.811785 2.303201,1.355492 3.679459,1.528232 v 9.590382 c -2.674169,0.451203 -4.719675,2.777058 -4.719675,5.578659 0,3.123482 2.540128,5.663612 5.663612,5.663612 3.123482,0 5.663611,-2.54013 5.663611,-5.663612 0,-2.800656 -2.045509,-5.126514 -4.719676,-5.578659 v -9.590382 c 1.376258,-0.17274 2.635467,-0.716447 3.679457,-1.528232 l 7.239043,7.239042 c -0.33321,0.562584 -0.536156,1.208236 -0.536156,1.906748 0,2.082321 1.69342,3.775741 3.77574,3.775741 2.082321,0 3.775743,-1.69342 3.775743,-3.775741 0,-2.08232 -1.693422,-3.775741 -3.775743,-3.775741 -0.698512,0 -1.344163,0.202946 -1.905804,0.535211 l -7.23904,-7.23904 c 0.994908,-1.279976 1.593363,-2.880891 1.593363,-4.623395 0,-1.742505 -0.598455,-3.343419 -1.593363,-4.622451 l 9.123135,-9.123135 c 1.00529,0.912785 2.335296,1.474426 3.797452,1.474426 3.123481,0 5.663612,-2.54013 5.663612,-5.6636117 0,-3.1234821 -2.540131,-5.6636121 -5.663612,-5.6636121 z"
   id="path2"
   style="fill:#ffffff;fill-opacity:1;stroke:#000000;stroke-width:2.96906;stroke-linecap:butt;stroke-linejoin:round;stroke-dasharray:none;stroke-dashoffset:0;stroke-opacity:1;paint-order:stroke fill markers" />
</svg>
